<svg version="1.2" xmlns="http://www.w3.org/2000/svg" viewBox="0 0 203 148" width="203" height="148"><style>.a{fill:#bcb5c6}.b{fill:#fc8165}.c{fill:#eae6ef}.d{fill:#d4d0d8}.e{fill:#fff}.f{fill:#ea366e}.g{fill:#f74d76}.h{fill:#8758e7}.i{fill:#ffaf45}.j{fill:#50447e}.k{fill:#6daff7}.l{fill:#80baff}.m{fill:#ada4f7}.n{fill:#dcd7e0}</style><path class="a" d="m167.3 131.5h6.5v-44.4h-6.5z"/><path class="a" d="m156.8 134.1h27.3c1.2 0 2.1-0.9 2.1-2 0-1.1-0.9-2.1-2.1-2.1h-27.3c-1.1 0-2 1-2 2.1 0 1.1 0.9 2 2 2z"/><path class="a" d="m180.5 137.3c0 2.4 2 4.4 4.4 4.4 2.4 0 4.4-2 4.4-4.4 0-2.5-2-4.4-4.4-4.4-2.4 0-4.4 1.9-4.4 4.4z"/><path class="a" d="m166.1 137.3c0 2.4 2 4.4 4.4 4.4 2.5 0 4.4-2 4.4-4.4 0-2.5-1.9-4.4-4.4-4.4-2.4 0-4.4 1.9-4.4 4.4z"/><path class="a" d="m151.9 137.3c0 2.4 1.9 4.4 4.4 4.4 2.4 0 4.4-2 4.4-4.4 0-2.5-2-4.4-4.4-4.4-2.5 0-4.4 1.9-4.4 4.4z"/><path class="b" d="m138.5 22.6c0 0-0.9-3.9-2.9-5.6-2.1-1.7-4.5-2.9-4.1-1.3 0.4 1.5 1.9 4.1 1.9 4.1l-3.7-1c0 0-2.5-1.1-4.2-1.6-1.8-0.5-2.3 0.8-2.3 0.8 0 0-1.8-0.4-2.5 0.1-0.8 0.5-0.3 1.6-0.3 1.6 0 0-2.5 0-1.5 2 0.9 1.9 5.9 5.1 8.3 6.3 2.4 1.1 7.9 1.8 7.9 1.8 0 0 4.9 1.1 3.4-7.2z"/><path  d="m124.9 23.5q-0.1-0.1-0.2-0.2c-0.1-0.1 0-0.3 0.1-0.3l6.4-3.5c0.1 0 0.3 0 0.4 0.1 0 0.2 0 0.3-0.1 0.4l-6.5 3.4q0 0.1-0.1 0.1z"/><path  d="m137.4 25.5q0 0 0 0-3.2-0.8-4.1-2.6c-0.6-1.4 0-2.6 0-2.7 0-0.1 0.2-0.2 0.3-0.1 0.1 0.1 0.2 0.2 0.1 0.3 0 0-0.4 1.1 0.1 2.3q0.8 1.6 3.7 2.3c0.1 0.1 0.2 0.2 0.2 0.3-0.1 0.2-0.2 0.2-0.3 0.2z"/><path class="b" d="m137.6 118.7l-0.9 10.8h16.8v-10.8z"/><path class="b" d="m109.7 88.3l-7.5 7.8 13 10.6 6.8-8.3z"/><path class="c" d="m187.8 42.5c0 0 17.4 6.2 14.1 29-3 20.9-24.3 27.5-42.2 22.6-18-4.9-15-19.1-15-19.1z"/><path class="d" d="m186.6 77.7c0.3 2.3-5.4 4.9-12.8 5.8-7.3 0.9-13.5-0.2-13.8-2.5-0.3-2.3 5.4-4.9 12.8-5.8 7.3-1 13.5 0.2 13.8 2.5z"/><path class="e" d="m193.9 83q-0.1 0-0.2-0.1c0-0.1 0-0.3 0.1-0.4 4.4-4.1 5.3-12.2 5.3-12.3 0-0.1 0.1-0.2 0.3-0.2 0.1 0 0.2 0.1 0.2 0.3-0.1 0.3-0.9 8.3-5.5 12.6q-0.1 0.1-0.2 0.1z"/><path class="f" d="m133.9 92.8v28.8h23.4l4.3-39.8-18.6-2.1z"/><path class="g" d="m105.9 87.2c0 0 18.9-22.5 30.4-26.1 11.5-3.5 47.1-2.3 47.1-2.3 0 0 3.5 16.6-6 20.9-9.5 4.4-27.8 3.6-30.9 5.2-3.1 1.5-22 20.1-22 20.1z"/><path class="b" d="m143 36.6l-4.4-9.7-8.6 0.3c0 0-3.4 24.4 7.2 29.4 8.4 3.9 16-5.2 16-5.2z"/><path class="h" d="m190.1 46.6c0 0-2.3-18.4-11.3-20.6-9-2.2-18-0.7-24.8 3-5.1 2.6-11.1 7.3-11.1 7.3l8.7 18.5 2.7-1.3v7.6l27.1-0.2 0.5-12.3z"/><path class="i" d="m134.6 95.5q-0.1 0-0.1-0.1c-0.1-0.1-0.1-0.2 0-0.3 0.3-0.4 9-9.8 12-10.5 2.9-0.6 14.5-1.7 14.9-1.7 0.2 0 0.3 0.1 0.3 0.2 0 0.2-0.1 0.3-0.2 0.3-0.1 0-12 1.1-14.9 1.7-2.8 0.6-11.7 10.2-11.8 10.3q-0.1 0.1-0.2 0.1z"/><path fill-rule="evenodd" class="i" d="m146.5 85.1q-0.1 0-0.2-0.1c-0.5-0.8-3-4.8-1.5-5.8 0.3-0.2 0.5-0.1 0.7-0.1 1.1 0.6 1.3 4.9 1.3 5.8 0 0.1-0.1 0.2-0.2 0.2q0 0-0.1 0zm-1.3-5.5q0 0-0.1 0c-0.7 0.5 0.1 2.6 1.1 4.3-0.1-1.9-0.4-4-0.9-4.3q-0.1 0-0.1 0z"/><path class="i" d="m129.9 100q-0.1 0-0.1-0.1l-17.9-17.9c-0.1-0.1-0.1-0.2 0-0.3 0.1-0.1 0.3-0.1 0.4 0l17.8 17.8c0.1 0.1 0.1 0.3 0 0.4q-0.1 0.1-0.2 0.1z"/><path class="i" d="m157.3 116.2h-22c-0.1 0-0.2-0.1-0.2-0.3 0-0.1 0.1-0.2 0.2-0.2h22c0.1 0 0.2 0.1 0.2 0.2 0 0.2-0.1 0.3-0.2 0.3z"/><path fill-rule="evenodd" class="e" d="m172.1 50.4c-0.1 0-0.2-0.1-0.2-0.2-0.2-0.8-1.2-4.7-0.5-5.5q0.2-0.2 0.5-0.1c1.4 0.3 0.7 4.4 0.5 5.6-0.1 0.1-0.1 0.2-0.3 0.2q0 0 0 0zm-0.3-5.3c-0.3 0.3-0.1 2 0.3 3.8 0.3-1.9 0.3-3.7-0.3-3.8q0 0 0 0z"/><path class="e" d="m154.4 53.2c-0.1 0-0.2-0.2-0.2-0.3v-7.3c0-0.1 0.1-0.2 0.2-0.2 0.2 0 0.3 0.1 0.3 0.2v7.3c0 0.1-0.1 0.3-0.3 0.3z"/><path class="b" d="m63.2 23.8c0 0 0.8-3.9 2.9-5.6 2-1.7 4.4-2.9 4-1.3-0.4 1.5-1.8 4.1-1.8 4.1l3.7-1c0 0 2.4-1.1 4.2-1.6 1.7-0.5 2.3 0.8 2.3 0.8 0 0 1.7-0.5 2.5 0.1 0.8 0.5 0.2 1.6 0.2 1.6 0 0 2.5 0 1.6 2-1 1.9-5.9 5.1-8.4 6.3-2.4 1.1-7.8 1.8-7.8 1.8 0 0-4.9 1.1-3.4-7.2z"/><path  d="m26.9 8.9c0 0-3.9-0.6-4.9 3-1 3.6 1.3 6 1.3 6 0 0-4.3 0.9-5.1 5.7-0.8 4.8 6.4 5.4 6.4 5.4l17.7-2.9c0 0 1.8-5.2-1.5-9.1-3.4-4-13.9-8.1-13.9-8.1z"/><path  d="m76.7 24.6q0 0-0.1 0l-6.4-3.4c-0.1-0.1-0.2-0.3-0.1-0.4 0.1-0.1 0.2-0.1 0.3-0.1l6.5 3.5c0.1 0 0.1 0.2 0.1 0.3q-0.1 0.1-0.3 0.1z"/><path  d="m64.2 26.7c-0.1 0-0.2-0.1-0.2-0.2 0-0.1 0-0.2 0.2-0.3q2.9-0.7 3.7-2.4c0.5-1.1 0-2.2 0-2.2 0-0.1 0-0.2 0.1-0.3 0.2-0.1 0.3 0 0.4 0.1 0 0.1 0.5 1.3-0.1 2.6q-0.9 1.9-4 2.7 0 0-0.1 0z"/><path class="b" d="m58.7 37.8l4.3-9.7 8.7 0.3c0 0 3.3 24.4-7.3 29.4-8.3 3.9-15.9-5.2-15.9-5.2z"/><path class="a" d="m27.7 129.8h6.3v-43.5h-6.3z"/><path class="c" d="m13 33.9c0 0-14.3 8-11.8 33.7 2.2 23.1 24.2 31.7 41.8 25.7 17.7-5.9 14.7-23.1 14.7-23.1z"/><path class="j" d="m57.9 41.8l-8.7-15-6.9 14.4 9.5 8.7z"/><path class="a" d="m17.4 132.4h26.8c1.1 0 2-0.9 2-2 0-1.2-0.9-2.1-2-2.1h-26.8c-1.1 0-2 0.9-2 2.1 0 1.1 0.9 2 2 2z"/><path class="a" d="m40.6 135.4c0 2.4 1.9 4.3 4.3 4.3 2.4 0 4.3-1.9 4.3-4.3 0-2.4-1.9-4.3-4.3-4.3-2.4 0-4.3 1.9-4.3 4.3z"/><path class="a" d="m26.5 135.4c0 2.4 2 4.3 4.3 4.3 2.4 0 4.4-1.9 4.4-4.3 0-2.4-2-4.3-4.4-4.3-2.3 0-4.3 1.9-4.3 4.3z"/><path class="a" d="m12.5 135.4c0 2.4 2 4.3 4.3 4.3 2.4 0 4.4-1.9 4.4-4.3 0-2.4-2-4.3-4.4-4.3-2.3 0-4.3 1.9-4.3 4.3z"/><path class="e" d="m11.9 82.6q0 0-0.1 0c-4.7-4-6.6-11.8-6.6-12.1-0.1-0.2 0-0.3 0.2-0.3 0.1 0 0.2 0 0.3 0.2 0 0 1.9 7.9 6.4 11.8 0.1 0.1 0.1 0.2 0 0.3q0 0.1-0.2 0.1z"/><path class="j" d="m36.9 21.5c0 0 8.9 0.8 12.3 5.3 3.3 4.4 2.5 33.2 2.2 33.6-0.2 0.3-10 2.3-20.9 2-10.8-0.2-10.8-0.8-11.2-1.4-0.3-0.6-0.9-35.2 2.1-37.4 2.5-1.9 8.9-2.9 15.5-2.1z"/><path class="b" d="m48.8 114.7v11.8l-9 3.4-5.7-6.4-0.9-10.9z"/><path class="d" d="m13.1 76c-0.3 2.3 5.4 4.9 12.8 5.8 7.3 0.9 13.5-0.2 13.8-2.5 0.3-2.3-5.4-4.9-12.8-5.8-7.3-0.9-13.5 0.2-13.8 2.5z"/><path class="b" d="m65.7 112.2v11.8l-9.6 3.5-6-6.4-1-11z"/><path class="k" d="m45.9 57.3c0 0 21.9 11.7 24.6 16.4 2.7 4.7-0.1 42.9-0.1 42.9l-19.3 0.2-2.8-21.4-14.9-36.1z"/><path class="l" d="m19.4 59.6c0 0-0.8 10.3-0.5 13.6 0.4 3.4 10.5 11.4 10.5 11.4l0.7 32.9 22.3 1.1c0 0 1.6-38.7 1.2-42.2-0.4-3.5-14.6-16.1-14.6-16.1z"/><path class="b" d="m31 16.7l-0.3 5.9c0 0 1 1.8 4.5 2.3 2.6 0.3 3.6-0.6 3.6-0.6l-0.3-2.7-0.2-2.9-6.2-1.7z"/><path  d="m32.1 17q0 0.2 0.1 0.5c1.2 3.1 4.8 3.9 6.3 4.1l-0.2-2.9z"/><path class="b" d="m40.3 5.1c0 0 2.8 7.6 1.3 11.7-1.4 4.2-5.2 3.2-7.4 2.3-2.2-1-3.2-2.4-3.2-2.4 0 0-2.2 0.6-3.5-1.5-1.2-2.1-0.2-4.3 1-4.8 1.3-0.4 2.7 0.6 2.7 0.6l-1-2.3c0 0 5.5-10.6 10.1-3.6z"/><path  d="m39.4 14.5q-0.1 0-0.1 0c-0.1 0-0.2-0.2-0.2-0.3 0.6-1.3-0.3-2.9-0.4-2.9 0-0.1 0-0.3 0.1-0.3 0.1-0.1 0.3-0.1 0.4 0 0 0.1 1 1.8 0.4 3.4q-0.1 0.1-0.2 0.1z"/><path  d="m30.6 14.5q-0.1 0-0.2-0.1l-1.8-2.3c-0.1-0.1-0.1-0.3 0-0.4 0.1-0.1 0.3 0 0.3 0.1l1.9 2.2c0.1 0.2 0.1 0.3 0 0.4q-0.1 0.1-0.2 0.1z"/><path  d="m28.5 13.7c-0.1 0-0.2-0.1-0.2-0.2 0-0.1 0.1-0.3 0.2-0.3l1.4-0.1c0.2 0 0.3 0.1 0.3 0.2 0 0.2-0.1 0.3-0.3 0.3l-1.4 0.1q0 0 0 0z"/><path class="f" d="m47.4 137.5c0 0 0.5-19.1 3.4-18.7 3 0.4 6 3.2 6 3.2 0 0 6.7-3.6 9.7-1.6 2.9 2 4.6 6.3 4.6 6.3l16.5 10.8c0 0 2 3.1 1.4 4.7-0.4 1.3-25.5 0.6-36.5 0.2-2.8-0.1-5.1-2.3-5.1-4.9z"/><path class="g" d="m56 132.8c0 0-4.2-10.1-6.9-11.8-2.6-1.8-9.3 3.8-9.3 3.8 0 0-5.6-5.9-7-2.8-1.3 3-2 14.1-1 16.5 1.1 2.5 8.7 6.5 18.8 6.5 4.8 0 11.6-1.5 11.6-3.1 0-2.6-4.6-7.4-6.2-9.1z"/><path class="h" d="m52.5 115.9c-0.1 0-0.2-0.2-0.2-0.3 0-0.3 1.9-35.1 1.1-39.1-0.6-2.8-9.4-11.5-9.5-11.6q-0.1-0.1-0.1-0.2 0.1-0.1 0.2-0.2l6.4-1c0.1 0 0.3 0.1 0.3 0.2 0 0.1-0.1 0.3-0.2 0.3l-5.9 0.9c1.7 1.7 8.7 8.8 9.3 11.5 0.8 4.1-1 37.8-1.1 39.2 0 0.2-0.1 0.3-0.3 0.3z"/><path class="b" d="m35.5 55.5c0 0 5.2 2.9 6.3 2.9 1.1-0.1 6.9-0.3 7.2-1.1l-3-2.4c0 0 2.1 1.1 3.6 0.6 1.6-0.6 3.6-2 4.1-3.1 0.5-1.2-1.3-1.1-1.3-1.1 0 0 3.6-0.7 1.3-2-2.3-1.4-14.3-4.4-19-2.2-4.8 2.3 0.8 8.4 0.8 8.4z"/><path fill-rule="evenodd" class="h" d="m29.4 84.8q0 0-0.1 0-0.1 0-0.1-0.2c0-0.8 0.2-4.6 1.5-5.1q0.6-0.2 1.2 0.5c0.9 1-1.5 3.9-2.3 4.8q-0.1 0-0.2 0zm1.5-4.8q0 0-0.1 0c-0.6 0.2-1 2.2-1.1 3.8 1.2-1.4 2.2-3.1 1.8-3.4-0.1-0.2-0.4-0.4-0.6-0.4z"/><path class="j" d="m24.9 22.1c0 0-6.7 1.5-11.2 9.1-4.7 8.1-4.1 15.8-4.1 15.8l14.6-1.4z"/><path class="b" d="m10.5 46.9c0 0-1.6 7.3 3.2 10.7 4.6 3.4 22.5-2.1 22.5-2.1l0.1-8.7-13-1.1z"/><path class="i" d="m24.1 45.9c-0.2 0-0.3-0.1-0.3-0.3l0.1-4.1c0-0.1 0.2-0.3 0.3-0.2 0.1 0 0.2 0.1 0.2 0.2l-0.1 4.1c0 0.2-0.1 0.3-0.2 0.3z"/><path class="i" d="m46.2 133.1c-0.1 0-0.2-0.1-0.3-0.2 0-0.2 0.1-0.3 0.2-0.3l4-1-6.6-0.9c-0.1 0-0.2-0.1-0.2-0.3 0-0.1 0.1-0.2 0.2-0.2l7.9-2.1c0.1 0 0.2 0.1 0.3 0.2 0 0.1-0.1 0.3-0.2 0.3l-6.7 1.8 6.7 0.9c0.1 0 0.2 0.1 0.2 0.2 0 0.1-0.1 0.2-0.2 0.3l-5.3 1.3q0 0 0 0z"/><path class="i" d="m72.1 132.6q-0.1 0-0.2-0.1-0.1-0.1 0-0.3l1.5-2.2-7 0.7c-0.1 0-0.2-0.1-0.2-0.2-0.1-0.1 0-0.2 0.1-0.3l4.7-3.7c0.1 0 0.3 0 0.3 0.1 0.1 0.1 0.1 0.2 0 0.3l-4.1 3.2 6.7-0.7q0.2 0 0.3 0.1 0 0.2 0 0.3l-1.6 2.2 5.2-0.8c0.2 0 0.3 0.1 0.3 0.2 0.1 0.1 0 0.3-0.2 0.3l-5.8 0.9q0 0 0 0z"/><path  d="m52.4 51.5q0 0-0.1 0c-2.4-1.2-5.2-1.1-5.2-1.1-0.1 0-0.2-0.1-0.2-0.2-0.1-0.2 0.1-0.3 0.2-0.3 0.1 0 2.9-0.1 5.5 1.2 0.1 0 0.1 0.2 0.1 0.3q-0.1 0.1-0.3 0.1z"/><path fill-rule="evenodd" d="m38.5 17.2c-0.8 0-1.5-0.9-1.6-0.9q-0.1-0.1 0-0.3 0.1-0.1 0.2-0.1h2.5q0.1 0 0.2 0.1 0 0.1 0 0.2c0 0.1-0.4 1-1.3 1q0 0 0 0zm-0.7-0.8c0.2 0.2 0.5 0.3 0.7 0.3 0.3 0 0.5-0.2 0.6-0.3z"/><path  d="m35.1 9.2q-0.1 0-0.2-0.1c-0.1-0.1-0.1-0.2 0-0.3 0.1-0.1 1.1-1.1 2.3-0.6 0.1 0 0.2 0.2 0.2 0.3-0.1 0.1-0.2 0.2-0.4 0.1-0.9-0.3-1.7 0.5-1.7 0.5q-0.1 0.1-0.2 0.1z"/><path  d="m41.1 8.9q-0.1 0-0.2-0.1-0.4-0.4-0.7-0.4c-0.3 0-0.5 0.1-0.5 0.1-0.1 0.1-0.2 0.1-0.3 0-0.1 0-0.1-0.2 0-0.3 0 0 0.3-0.3 0.7-0.3q0.6 0 1.2 0.6c0.1 0.1 0.1 0.2 0 0.3q-0.1 0.1-0.2 0.1z"/><path  d="m36.2 11.5c-0.1 0-0.2-0.1-0.2-0.2l-0.1-1.4q0-0.1 0.1-0.2l0.5-0.5c0.1-0.1 0.3-0.1 0.3 0 0.1 0.1 0.1 0.3 0 0.4l-0.4 0.4 0.1 1.3c0 0.1-0.1 0.2-0.3 0.2q0 0 0 0z"/><path  d="m40.3 11.5c-0.1 0-0.2-0.1-0.2-0.2l-0.1-1.4q0-0.2 0.1-0.2l0.5-0.5c0.1-0.1 0.3-0.1 0.4 0 0.1 0.1 0 0.3-0.1 0.4l-0.4 0.3 0.1 1.3c0 0.2-0.1 0.3-0.2 0.3q0 0-0.1 0z"/><path class="i" d="m30.8 20.9c0 0-0.7 0.1-0.9 0.5-0.1 0.4 1 8.6 3 9.7 1.9 1.1 4.9-5.1 5-5 0.1 0.2 3.2 3.7 3.7 3.7 0.4 0-0.5-3.6-1.3-5.4-0.6-1.6-1.8-2.8-1.8-2.8 0 0 0.1 1.9 0 2.2-0.1 0.3-2 1.4-4.3 0.6-3.1-1.2-3.4-3.5-3.4-3.5z"/><path  d="m31.2 11l1.3 1.7-0.7-2.4c0 0 1.1 0.1 2.7-1.4 1.6-1.4 2.2-3 2.2-3 0 0 0.8 0.7 1.8 0.6 1.1-0.2 1.8-1.4 1.8-1.4l0.8 2.5c0 0 0.8-3.5 0-4.9-0.8-1.4-1.8-1.1-1.8-1.1 0 0 0-1.3-2.2-1.5-2.1-0.2-3.1 1.6-3.1 1.6 0 0-1.1-1-3.4 0-2.3 1.1-2.1 3.5-2.1 3.5 0 0-2.2 0.7-2.5 2.5-0.2 1.7 1.2 4.2 1.2 4.2 0 0 0.9-2.2 4-0.9z"/><path class="l" d="m90.9 58.9h9.4v-15.3c0-2.6-2.1-4.7-4.7-4.7-2.6 0-4.7 2.1-4.7 4.7z"/><path class="l" d="m93.8 41.1h3.6v-5.3h-3.6z"/><path class="i" d="m93.4 36.4h4.4c0.7 0 1.3-0.5 1.3-1.2 0-0.7-0.6-1.3-1.3-1.3h-4.4c-0.7 0-1.2 0.6-1.2 1.3 0 0.7 0.5 1.2 1.2 1.2z"/><path class="e" d="m99.1 51.6c-0.2 0-0.3-0.1-0.3-0.3v-8.5c0-0.1 0.1-0.3 0.3-0.3 0.1 0 0.2 0.2 0.2 0.3v8.5c0 0.2-0.1 0.3-0.2 0.3z"/><path class="e" d="m47.2 56.7h28.5l8.2-18.4h-27.4c-0.7 0-1.3 0.4-1.6 1z"/><path class="m" d="m49.7 56.7h28.5l7.3-16.5c0.4-0.9-0.3-1.9-1.3-1.9h-26.4z"/><path class="h" d="m37.7 59h40.2c0.6 0 1.2-0.5 1.2-1.2 0-0.6-0.6-1.1-1.2-1.1h-40.2c-0.7 0-1.2 0.5-1.2 1.1 0 0.7 0.5 1.2 1.2 1.2z"/><path class="e" d="m65.2 47.5c0 1.3 1.1 2.4 2.4 2.4 1.4 0 2.5-1.1 2.5-2.4 0-1.4-1.1-2.5-2.5-2.5-1.3 0-2.4 1.1-2.4 2.5z"/><path class="e" d="m146.5 56.7h-28.5l-8.2-18.4h27.4c0.7 0 1.3 0.4 1.6 1z"/><path class="i" d="m144 56.7h-28.5l-7.3-16.4c-0.4-1 0.3-2 1.3-2h26.4z"/><path class="e" d="m128.5 47.5c0 1.3-1.1 2.4-2.4 2.4-1.4 0-2.5-1.1-2.5-2.4 0-1.4 1.1-2.4 2.5-2.4 1.3 0 2.4 1 2.4 2.4z"/><path class="m" d="m156 59h-40.2c-0.6 0-1.2-0.5-1.2-1.2 0-0.6 0.6-1.1 1.2-1.1h40.2c0.7 0 1.2 0.5 1.2 1.1 0 0.7-0.5 1.2-1.2 1.2z"/><path class="n" d="m176.7 147.8h-0.1c-1 0-1.8-0.8-1.8-1.8v-85.2h3.7v85.2c0 1-0.8 1.8-1.8 1.8z"/><path class="n" d="m187.3 64h-173.9c-1.5 0-2.6-1.2-2.6-2.6 0-1.5 1.1-2.6 2.6-2.6h173.9c1.4 0 2.6 1.1 2.6 2.6 0 1.4-1.2 2.6-2.6 2.6z"/><path class="n" d="m23.5 147.3h-0.1c-1 0-1.8-0.8-1.8-1.8v-85.2h3.7v85.2c0 1-0.8 1.8-1.8 1.8z"/><path class="j" d="m151.1 142.4c1.1 0 2.1-0.9 2.2-2.1 0.2-4.6 1.4-15 0.5-15.1-1.1 0-12.7 2.3-12.7 2.3 0 0 0-6.5-4.7-5.6-3.7 0.7-8.1 4.5-10 6.3-0.6 0.5-1.3 0.9-2.1 1-3.4 0.6-12.9 2.7-13.3 7.4-0.5 5.8 2 5.3 3.2 5.3 0.9 0.1 29 0.4 36.9 0.5z"/><path class="h" d="m111 138.9c-0.1 0-0.3-0.1-0.3-0.2 0-0.2 0.2-0.3 0.3-0.3l42.4-0.4c0.1 0 0.3 0.1 0.3 0.2 0 0.2-0.2 0.3-0.3 0.3l-42.4 0.4q0 0 0 0z"/><path class="j" d="m105 114.6c0.9 0.8 2.2 0.8 3-0.1 3.3-3.3 11.1-10.2 10.4-10.9-0.8-0.8-11-6.7-11-6.7 0 0 4.3-4.8 0.2-7.3-3.2-2-9.1-2-11.7-1.9-0.8 0-1.6-0.2-2.2-0.6-3-1.8-11.5-6.5-14.9-3.3-4.2 4-2 5.3-1.1 6.1 0.6 0.7 21.4 19.4 27.3 24.7z"/><path class="h" d="m109.5 113.3q-0.1 0-0.2 0l-32-27.8c-0.1-0.1-0.1-0.2 0-0.4 0.1-0.1 0.2-0.1 0.3 0l32.1 27.8c0.1 0.1 0.1 0.2 0 0.4q-0.1 0-0.2 0z"/><path class="i" d="m167.9 11.1c0 0-5.3 0.4-5.7-4.7-0.5-5.4 4.5-6 6.7-3.9 2.1 2.1 1.8 4.3 1.8 4.3 0 0 1.5-1.3 3.1 0.3 1.2 1.1 0.7 3.1 0.7 3.1 0 0 2.7-0.2 2.5 2.2-0.2 2.4-1.9 3.7-1.9 3.7z"/><path class="b" d="m173 20.3l-0.4 5.6c0 0-1.2 1.6-4.5 1.6-2.5 0-3.3-0.6-3.3-0.6l0.6-2.8 0.5-2.8 6.1-0.9z"/><path  d="m172 20.4q-0.1 0.3-0.2 0.6c-1.5 2.7-5 3.1-6.4 3.1l0.5-2.8z"/><path class="b" d="m165.6 8.4c0 0-3.5 6.8-2.6 10.9 0.9 4 4.5 3.5 6.7 2.9 2.2-0.6 3.3-1.9 3.3-1.9 0 0 1.9 0.8 3.4-1 1.4-1.8 0.7-4-0.4-4.6-1.1-0.5-2.5 0.2-2.5 0.2l1.2-1.9c0 0-4-10.7-9.1-4.6z"/><path  d="m173.5 18q-0.1 0-0.2-0.1c-0.1-0.1-0.1-0.3 0.1-0.3l2.6-1.7c0.1 0 0.3 0 0.4 0.1 0 0.1 0 0.3-0.1 0.3l-2.7 1.7q0 0-0.1 0z"/><path  d="m175.8 18.2q0 0-0.1 0l-1.6-0.6c-0.1 0-0.2-0.2-0.2-0.3 0.1-0.1 0.2-0.2 0.3-0.2l1.7 0.6c0.1 0 0.2 0.2 0.1 0.3q0 0.2-0.2 0.2z"/><path  d="m170.1 11.7q-0.1 0-0.2-0.1c-0.7-1-1.6-0.6-1.6-0.5-0.1 0-0.3 0-0.3-0.2-0.1-0.1 0-0.2 0.1-0.3 0.4-0.2 1.5-0.3 2.2 0.7 0.1 0.2 0 0.3-0.1 0.4q0 0-0.1 0z"/><path  d="m164.6 11.1q-0.1 0-0.2-0.1c0-0.1 0-0.3 0.1-0.4 0.9-0.6 1.8 0 1.8 0 0.1 0.1 0.1 0.2 0.1 0.3-0.1 0.1-0.3 0.2-0.4 0.1 0 0-0.6-0.4-1.2 0q-0.1 0.1-0.2 0.1z"/><path  d="m165.6 17.5c-0.2 0-0.3-0.1-0.3-0.2-0.5-2.4 0.8-3.9 0.9-4 0.1-0.1 0.2-0.1 0.3 0 0.1 0.1 0.1 0.2 0 0.4 0 0-1.2 1.4-0.7 3.4 0 0.2 0 0.3-0.2 0.3q0 0.1 0 0.1z"/><path  d="m164.5 13.8q-0.1 0-0.1 0c-0.1-0.1-0.2-0.2-0.2-0.3l0.5-1.3c0-0.1 0.2-0.2 0.3-0.2 0.1 0.1 0.2 0.2 0.2 0.3l-0.5 1.3q-0.1 0.2-0.2 0.2z"/><path  d="m168 14.1q0 0 0 0c-0.2-0.1-0.2-0.2-0.2-0.3l0.4-1.3c0.1-0.1 0.2-0.2 0.4-0.1 0.1 0 0.2 0.1 0.1 0.3l-0.4 1.2q-0.1 0.2-0.3 0.2z"/><path class="i" d="m164.9 9.9c0 0 0.6-1 2.1-1 1.4 0.1 2.1 1.2 2.1 1.2 0 0-0.8 2.3 1.1 3.7 1.8 1.4 3.3 1.1 3.3 1.1l1.4-0.4 1.2-1.9-3.7-4.6-5-3.1-2.9 2.2z"/><path  d="m166.7 18.9q-0.3 0-0.3-0.1c-0.1 0-0.2-0.1-0.2-0.2 0-0.2 0.1-0.3 0.3-0.2 0 0 1.1 0.1 1.7-0.8 0-0.2 0.2-0.2 0.3-0.1 0.1 0 0.2 0.2 0.1 0.3-0.5 0.9-1.4 1.1-1.9 1.1z"/><path fill-rule="evenodd" class="l" d="m163 16.5c-0.5 0-1.1-0.3-1.5-0.7-0.4-0.5-0.6-1.1-0.7-1.8 0-0.6 0.2-1.2 0.6-1.7 0.4-0.5 1-0.8 1.6-0.8q0 0 0 0c1.2 0 2.2 1.1 2.2 2.4 0 1.4-0.9 2.5-2.1 2.6q0 0-0.1 0zm0-4.5q-0.7 0-1.2 0.6c-0.3 0.4-0.5 0.9-0.5 1.4 0.1 0.6 0.2 1.1 0.6 1.4 0.3 0.4 0.7 0.6 1.1 0.6 1-0.1 1.7-1 1.7-2.1 0-1-0.8-1.9-1.7-1.9z"/><path fill-rule="evenodd" class="l" d="m168.5 16.9c-1.4 0-2.5-1.1-2.5-2.4-0.1-1.4 1-2.5 2.4-2.6 1.4 0 2.5 1.1 2.5 2.4 0.1 1.4-1 2.5-2.4 2.6q0 0 0 0zm0-4.5q-0.1 0-0.1 0c-1.1 0.1-1.9 1-1.9 2 0 1.1 0.9 2 2 2 1.1-0.1 2-1 1.9-2.1 0-1-0.9-1.9-1.9-1.9z"/><path class="l" d="m165 14.2c-0.2 0-0.3-0.1-0.3-0.3 0-0.1 0.1-0.2 0.3-0.2h1.3c0.2 0 0.3 0.1 0.3 0.2 0 0.1-0.1 0.2-0.3 0.3h-1.3q0 0 0 0z"/><path class="l" d="m174.9 14.8q0 0-0.1 0c-1.5-0.6-4.1-0.2-4.1-0.2-0.1 0-0.3-0.1-0.3-0.2 0-0.2 0.1-0.3 0.2-0.3 0.1 0 2.7-0.4 4.4 0.2 0.1 0.1 0.2 0.2 0.1 0.3q0 0.2-0.2 0.2z"/><path class="b" d="m188.3 47c0 0 1 6.9-2.1 12.5-3.2 5.7-26.4 1.8-26.4 1.8l-1.6-6.8 13.5-4.2c0 0 8.9-1.4 16.6-3.3z"/><path class="b" d="m158.2 54.5c0 0-3.9 0.6-6.3 1.3-2.3 0.7-6 1.5-7.5 1.1-1.5-0.4-1.7 0.3-1.3 1.2 0.4 0.9 2.2 1.3 2.2 1.3 0 0-1.9 7.5-1.2 8.1 0.8 0.6 2.9-1.7 2.9-1.7 0 0 0.4 0.5 1 0.6 0.5 0.1 1.3-0.3 1.3-0.3 0 0 0.2 0.7 1.2 0.9 1 0.2 1.7-0.4 1.7-0.4 0 0 0.5 1.3 1.2 1 0.6-0.3 3.5-1.1 3.4-2-0.2-0.9-2.6-0.7-2.6-0.7l-0.3-1.5c0 0 2.5 1.9 4.8 0.6 2.4-1.3 2.1-4.6 2.1-4.6z"/><path  d="m147 66q-0.1 0-0.2-0.1c-1.9-2.3 0.4-6.5 0.5-6.6 0-0.2 0.2-0.2 0.3-0.1 0.1 0 0.2 0.2 0.1 0.3 0 0.1-2.2 4.1-0.5 6.1 0.1 0.1 0 0.3-0.1 0.4q0 0-0.1 0z"/><path  d="m149.3 66.4q-0.1 0-0.2-0.1c-1.2-1.5-0.3-3.7-0.3-3.8 0.1-0.1 0.2-0.2 0.3-0.2 0.2 0.1 0.2 0.2 0.2 0.4 0 0-0.8 2 0.2 3.3 0.1 0.1 0.1 0.2 0 0.3q-0.1 0.1-0.2 0.1z"/><path  d="m152.2 66.9q-0.1 0-0.2-0.1c-1.3-1-1.1-3.1-1.1-3.2 0-0.2 0.1-0.3 0.3-0.3 0.1 0.1 0.2 0.2 0.2 0.3 0 0-0.2 2 0.9 2.9 0.1 0 0.1 0.2 0.1 0.3q-0.1 0.1-0.2 0.1z"/><path fill-rule="evenodd" class="e" d="m169.9 31.6q-0.2 0-0.4-0.1c-1-0.3-1.8-2.1-2.1-3-0.6 0.9-1.9 2.7-3.2 2.6-0.4-0.1-0.6-0.3-0.7-0.5-0.5-1 0.9-3.5 1.1-3.8 0.1-0.1 0.2-0.2 0.3-0.1 4.7 2.1 7.5-0.9 7.5-0.9 0.1-0.1 0.2-0.1 0.3-0.1 0.1 0.1 0.1 0.2 0.1 0.3 0 0.2-0.8 4.5-2.4 5.4q-0.2 0.2-0.5 0.2zm-2.2-3.7c0.3 0.9 1.1 2.8 2 3.2q0.2 0.1 0.5-0.1c0.9-0.6 1.7-2.9 2-4.4-0.8 0.6-2.4 1.5-4.5 1.3zm-2.8-0.7c-0.6 1-1.3 2.6-1 3.2 0.1 0.1 0.1 0.1 0.3 0.2 1.2 0.1 2.4-1.8 2.9-2.7q-1-0.2-2.2-0.7z"/><path class="i" d="m47.7 43.3q-0.1 0-0.1 0c-0.1-0.1-0.2-0.3-0.1-0.4 2.9-4.8-0.6-10.6-0.6-10.7-0.1-0.1 0-0.2 0.1-0.3 0.1-0.1 0.2 0 0.3 0.1 0.1 0 3.7 6 0.6 11.2q-0.1 0.1-0.2 0.1z"/></svg>