<svg version="1.2" xmlns="http://www.w3.org/2000/svg" viewBox="0 0 338 315" width="338" height="315"><style>.a{fill:#5e1dbb}.b{fill:#9364ed}.c{fill:#07cbf5}.d{fill:#fff}.e{fill:#211e51}.f{fill:#2e2865}.g{fill:#fd8753}.h{fill:#1f1d51}.i{fill:#e2209e}.j{fill:#e59f03}.k{fill:#ffb700}.l{fill:#6426c6}.m{fill:#ffba57}</style><path class="a" d="m118.5 3c0 0-10.9-6.3-21.7-0.9-10.9 5.4-8.7 20.7-8.7 20.7 0 0-15 11.9-18 25.4-2.9 13.4 3.8 17.7 3.8 17.7l24-8 13.5-41.6z"/><path class="a" d="m138.6 58.5c0 0 4.5-10.9 0.4-17.6-4.3-7.1-12.4-8.4-11.8-13.8 1.4-12.7-7.1-19.5-7.1-19.5l-5.6 49.8z"/><path class="b" d="m157.7 91.1l-19-32.8-15 31.5 20.8 18.7z"/><path class="c" d="m218.2 127.5h22.1v-29h-22.1z"/><path class="d" d="m218.2 98.5c0 0.7 4.9 1.3 11 1.3 6.2 0 11.1-0.6 11.1-1.3 0-0.7-4.9-1.3-11.1-1.3-6.1 0-11 0.6-11 1.3z"/><path fill-rule="evenodd" class="c" d="m209.9 114.6c0-5.9 3.7-10.7 8.3-10.7 4.5 0 8.2 4.8 8.2 10.7 0 5.9-3.7 10.7-8.2 10.7-4.6 0-8.3-4.8-8.3-10.7zm1.9 0c0 4.8 2.9 8.7 6.4 8.7 3.5 0 6.3-3.9 6.3-8.7 0-4.9-2.8-8.8-6.3-8.8-3.5 0-6.4 3.9-6.4 8.8z"/><path class="e" d="m92 282h13.9v-94.5h-13.9z"/><path class="e" d="m69.7 287.7h58.2c2.4 0 4.3-2 4.3-4.4 0-2.4-1.9-4.3-4.3-4.3h-58.2c-2.4 0-4.3 1.9-4.3 4.3 0 2.4 1.9 4.4 4.3 4.4z"/><path class="e" d="m120.1 294.3c0 5.2 4.2 9.4 9.3 9.4 5.2 0 9.4-4.2 9.4-9.4 0-5.1-4.2-9.3-9.4-9.3-5.1 0-9.3 4.2-9.3 9.3z"/><path class="e" d="m89.6 294.3c0 5.2 4.2 9.4 9.3 9.4 5.2 0 9.4-4.2 9.4-9.4 0-5.1-4.2-9.3-9.4-9.3-5.1 0-9.3 4.2-9.3 9.3z"/><path class="e" d="m59.2 294.3c0 5.2 4.2 9.4 9.3 9.4 5.2 0 9.4-4.2 9.4-9.4 0-5.1-4.2-9.3-9.4-9.3-5.1 0-9.3 4.2-9.3 9.3z"/><path class="f" d="m61.4 73.8c0 0-32.2 17.4-26.9 73.2 4.8 50.3 52.6 68.8 90.9 55.9 38.3-13 31.9-50.3 31.9-50.3z"/><path class="a" d="m57.9 179.7q-0.2 0-0.4-0.1c-10.2-8.6-14.2-25.6-14.4-26.3 0-0.3 0.2-0.6 0.5-0.7 0.3-0.1 0.6 0.1 0.7 0.4 0 0.2 4.1 17.3 14 25.7 0.2 0.2 0.2 0.6 0 0.8q-0.2 0.2-0.4 0.2z"/><path class="b" d="m112 46.9c0 0 19.4 1.8 26.7 11.4 7.3 9.7-2.3 70.2-2.8 71-0.5 0.9-14.1 7-37.7 6.5-23.6-0.6-29.3-5.2-30.1-6.5-0.8-1.3 2.7-68.8 8.4-74.6 5.7-5.8 21.3-9.5 35.5-7.8z"/><path class="g" d="m134.9 249.2v25.8l-17.8 7.4-11.2-13.9-1.9-23.8z"/><path class="h" d="m60.4 165.2c-0.7 5 11.8 10.6 27.8 12.6 15.9 2 29.4-0.4 30-5.4 0.6-5-11.8-10.6-27.8-12.6-16-2-29.4 0.4-30 5.4z"/><path class="g" d="m170.9 243.9v25.7l-16.6 7.4-12.8-3 0.7-34.6z"/><path class="i" d="m132 124.6c0 0 49.9 25.1 56 35.3 6.2 10.2-0.6 93.4-0.6 93.4l-44.3 0.6-6.1-46.5-33.6-78.3z"/><path class="i" d="m71.3 129.9c0 0-2 22.3-1.3 29.6 0.7 7.4 23.8 24.6 23.8 24.6l1.2 71.4 51.2 2.3c0 0 1.1-81.6 0.2-89.3-0.8-7.7-34.9-35.6-34.9-35.6z"/><path class="j" d="m135.3 298.7c0 0 0.8-41.3 6.9-40.5 6 0.9 12.1 6.9 12.1 6.9 0 0 13.8-7.7 19.8-3.4 6.1 4.3 9.5 13.8 9.5 13.8l33.7 23.2c0 0 4.1 6.9 2.9 10.4-0.9 2.7-52.1 1.2-74.6 0.4-5.8-0.2-10.3-5-10.3-10.8z"/><path class="k" d="m152.1 288.6c0 0-8.7-22-14.4-25.8-5.6-3.7-19.8 8.3-19.8 8.3 0 0-11.8-12.7-14.7-6-2.9 6.7-4.4 30.7-2.2 36 2.2 5.3 18.4 14.1 39.8 14 10 0 24.5-3.3 24.5-6.8 0-5.6-9.8-16.1-13.2-19.7z"/><path class="l" d="m147 254.2c-0.4 0-0.6-0.2-0.6-0.6 0-0.8 3.3-78.5 1.4-87.3-1.2-6-20.4-24.8-20.5-25-0.2-0.1-0.3-0.3-0.2-0.5 0-0.2 0.2-0.4 0.4-0.5l13.8-5c0.3-0.2 0.6 0 0.7 0.3 0.1 0.3 0 0.6-0.3 0.8l-13 4.7c3.5 3.5 19.1 19.2 20.3 24.9 1.9 9-1.3 84.5-1.4 87.7-0.1 0.3-0.3 0.5-0.6 0.5z"/><path  d="m145.8 112.1q-0.1 0-0.2-0.1c-5.3-2.5-11.3-2.4-11.3-2.4-0.4 0-0.5-0.2-0.5-0.5-0.1-0.2 0.2-0.5 0.4-0.5 0.3 0 6.3-0.1 11.9 2.5 0.2 0.2 0.3 0.5 0.2 0.7-0.1 0.2-0.3 0.3-0.5 0.3z"/><path fill-rule="evenodd" class="l" d="m93.5 185.2q-0.1-0.1-0.3-0.1c-0.2-0.2-0.3-0.4-0.3-0.6 0.2-1 1.7-9.5 5.2-10.9q1.6-0.6 3.3 0.8 0.6 0.4 0.6 1.2c0 2.9-7.3 8.8-8.1 9.4q-0.2 0.2-0.4 0.2zm5.6-10.6q-0.3 0-0.5 0.1c-2.1 0.8-3.5 5.4-4.2 8.4 2.9-2.5 6.4-6 6.4-7.5 0-0.2-0.1-0.3-0.1-0.3q-0.9-0.7-1.6-0.7z"/><path class="m" d="m71 132.2q-0.5 0-0.9 0c-0.4 0-0.6-0.3-0.6-0.6 0-0.3 0.2-0.5 0.6-0.5q0.4 0 0.9 0c16.8 0 30.4-3.5 30.6-3.5 0.3-0.1 0.6 0.1 0.7 0.4 0.1 0.3-0.1 0.6-0.4 0.7-0.2 0-14 3.5-30.9 3.5z"/><path class="a" d="m39.3 136.6h255.6v-9.1h-255.6z"/><path class="l" d="m147 245.9c-0.1 0-51.9-2.7-51.9-2.7-0.3-0.1-0.6-0.3-0.6-0.7 0.1-0.3 0.4-0.5 0.7-0.5l51.8 2.7c0.3 0 0.6 0.3 0.6 0.6-0.1 0.3-0.3 0.6-0.6 0.6z"/><path class="l" d="m187.6 243.2h-40.2c-0.3 0-0.6-0.3-0.6-0.6 0-0.3 0.3-0.6 0.6-0.6h40.2c0.3 0 0.6 0.3 0.6 0.6 0 0.3-0.3 0.6-0.6 0.6z"/><path class="a" d="m2.1 308.1q-0.6 0-1.1-0.4c-0.9-0.6-1.2-1.8-0.6-2.7l112.7-171.6c0.6-0.9 1.8-1.1 2.7-0.5 0.9 0.6 1.1 1.8 0.5 2.7l-112.6 171.6c-0.4 0.5-1 0.9-1.6 0.9z"/><path class="a" d="m336.1 308.1c-0.6 0-1.3-0.4-1.7-0.9l-112.6-171.6c-0.6-0.9-0.3-2.1 0.6-2.7 0.9-0.6 2.1-0.4 2.7 0.5l112.6 171.6c0.6 0.9 0.4 2.1-0.5 2.7q-0.5 0.4-1.1 0.4z"/><path class="b" d="m87.1 50c0 0-12.5 1.6-23.8 18.9-11.6 17.7-14.4 33.1-14.4 33.1l34.4-0.6z"/><path class="g" d="m50.8 102c0 0-3.6 15.9 7.2 23.4 10.5 7.2 53.7-4.5 53.7-4.5l0.3-17.6-32.7-1.9z"/><path class="g" d="m106.9 103.9c0 0 8-1.3 11.8-1.3 5.6-0.1 17.3 2.4 22 3.4 4.6 1 15.2 8.8 13.5 10.1-1.7 1.3-12.1-2.7-12.1-2.7 0 0 7.5 9.3 5.9 10.7-1.7 1.4-4.7-1-4.7-1 0 0 2.4 2.8-0.4 3.4-2.8 0.5-11.8-8.1-11.8-8.1 0 0 3.5 8.3 1.6 8.8-2 0.6-8-7.3-8-7.3 0 0-9.6 5.3-14.2-0.2-4.6-5.4-5.4-9.4-5.4-9.4z"/><path  d="m143.3 123.8q-0.3 0-0.5-0.2l-8.9-10.9c-0.3-0.2-0.2-0.6 0.1-0.9 0.2-0.2 0.6-0.1 0.9 0.1l8.9 10.8c0.2 0.3 0.2 0.7-0.1 0.9q-0.2 0.2-0.4 0.2z"/><path  d="m142.1 114q-0.3 0-0.5-0.2l-3.2-3.9c-0.3-0.3-0.2-0.7 0-0.9 0.3-0.2 0.7-0.2 1 0.1l3.2 3.9c0.2 0.3 0.2 0.7-0.1 0.9q-0.2 0.1-0.4 0.1z"/><path class="b" d="m262.4 87.6h-13.9c-1.4 0-2.5-1.1-2.5-2.6v-8.2c0-1.4 1.1-2.5 2.5-2.5h13.9c1.4 0 2.6 1.1 2.6 2.5v8.2c0 1.5-1.2 2.6-2.6 2.6z"/><path class="b" d="m262.4 100.9h-13.9c-1.4 0-2.5-1.1-2.5-2.6v-8.2c0-1.4 1.1-2.5 2.5-2.5h13.9c1.4 0 2.6 1.1 2.6 2.5v8.2c0 1.5-1.2 2.6-2.6 2.6z"/><path class="b" d="m262.4 114.2h-13.9c-1.4 0-2.5-1.1-2.5-2.5v-8.3c0-1.4 1.1-2.5 2.5-2.5h13.9c1.4 0 2.6 1.1 2.6 2.5v8.3c0 1.4-1.2 2.5-2.6 2.5z"/><path class="b" d="m262.4 127.5h-13.9c-1.4 0-2.5-1.1-2.5-2.5v-8.2c0-1.5 1.1-2.6 2.5-2.6h13.9c1.4 0 2.6 1.1 2.6 2.6v8.2c0 1.4-1.2 2.5-2.6 2.5z"/><path class="b" d="m259.9 75.3h-8.9v-5.7h8.9z"/><path class="d" d="m250.2 95.3c-0.3 0-0.6-0.2-0.6-0.6v-17.8c0-0.4 0.3-0.6 0.6-0.6 0.3 0 0.6 0.2 0.6 0.6v17.8c0 0.4-0.3 0.6-0.6 0.6z"/><path class="d" d="m259.8 71.3h-8.7c-0.5 0-1-0.5-1-1v-4.3c0-0.6 0.5-1 1-1h8.7c0.6 0 1 0.4 1 1v4.3c0 0.5-0.4 1-1 1z"/><path class="d" d="m126.6 123.3h61.9l17.6-40h-59.4c-1.5 0-2.8 0.9-3.4 2.2z"/><path class="k" d="m132 123.3h61.8l15.8-35.7c0.9-2-0.6-4.3-2.8-4.3h-57.2z"/><path class="f" d="m105.9 128.3h87.3c1.4 0 2.5-1.1 2.5-2.5 0-1.4-1.1-2.5-2.5-2.5h-87.3c-1.4 0-2.6 1.1-2.6 2.5 0 1.4 1.2 2.5 2.6 2.5z"/><path class="d" d="m165.7 103.3c0 2.9 2.3 5.2 5.2 5.2 2.9 0 5.3-2.3 5.3-5.2 0-2.9-2.4-5.3-5.3-5.3-2.9 0-5.2 2.4-5.2 5.3z"/><path class="k" d="m132.2 95.3q-0.2 0-0.4-0.2c-0.2-0.2-0.2-0.6 0-0.8 11-10 1.3-25.7 1.2-25.9-0.1-0.2 0-0.6 0.2-0.8 0.3-0.1 0.7-0.1 0.8 0.2 0.1 0.2 10.3 16.7-1.4 27.4q-0.2 0.1-0.4 0.1z"/><path class="g" d="m101.9 35.1l-1.1 13.2c0 0 2.1 4 9.8 5.2 5.7 1 7.8-1.8 7.8-1.8l-0.5-11.7-13.7-4.2z"/><path  d="m104.2 35.8q0 0.6 0.3 1.3c2.4 6.9 10.4 8.9 13.7 9.5l-0.3-6.6z"/><path class="g" d="m123.2 10.1c0 0 5.6 17.1 2.2 26.1-3.5 9-11.8 6.7-16.6 4.5-4.9-2.3-6.9-5.6-6.9-5.6 0 0-4.9 1.2-7.6-3.5-2.7-4.7-0.3-9.5 2.5-10.4 2.8-0.9 5.8 1.3 5.8 1.3l-2.1-5c0 0 12.8-23.2 22.7-7.4z"/><path class="a" d="m102.6 22.5c0 0 6.9 2.2 12.6-5.1 5.7-7.4 5.6-10.7 5.6-10.7l4 8.7c0 0 1.7-5.5-0.2-9.4-1.8-3.8-4.2-3.3-4.2-3.3l-16 2.3-5.4 12z"/><path  d="m120.5 31q-0.1 0-0.2-0.1c-0.3-0.1-0.4-0.4-0.3-0.7 1.2-2.9-0.7-6.4-0.7-6.4-0.2-0.3-0.1-0.7 0.2-0.8 0.3-0.2 0.6-0.1 0.8 0.2 0.1 0.1 2.2 4 0.8 7.4-0.1 0.2-0.3 0.4-0.6 0.4z"/><path  d="m114.4 18.9q-0.1 0-0.3 0c-0.2-0.2-0.4-0.5-0.2-0.8 1.6-3.5 3.9-2.6 4-2.6 0.3 0.1 0.4 0.5 0.3 0.8-0.1 0.3-0.4 0.4-0.7 0.3-0.1 0-1.4-0.4-2.6 2-0.1 0.2-0.3 0.3-0.5 0.3z"/><path  d="m125 17.5c-0.3 0-0.5-0.2-0.6-0.5 0-0.2-0.2-0.8-0.5-1-0.4-0.2-0.9 0-1.2 0.2-0.3 0.1-0.7 0-0.8-0.3-0.2-0.3-0.1-0.6 0.2-0.8q1.4-0.6 2.3-0.1c1 0.5 1.2 1.7 1.2 1.8 0 0.3-0.2 0.6-0.5 0.7q0 0-0.1 0z"/><path  d="m101.1 30.2q-0.2 0-0.4-0.2l-4-5.2c-0.2-0.2-0.2-0.6 0.1-0.8 0.2-0.2 0.6-0.1 0.8 0.1l4 5.2c0.2 0.2 0.2 0.6-0.1 0.8q-0.2 0.1-0.4 0.1z"/><path  d="m96.5 28.5c-0.3 0-0.5-0.3-0.5-0.6-0.1-0.3 0.2-0.6 0.5-0.6l3.1-0.1c0.4-0.1 0.6 0.2 0.7 0.5 0 0.3-0.3 0.6-0.6 0.6l-3.1 0.2q0 0-0.1 0z"/><path  d="m124.1 24.9c-0.3 0-0.6-0.3-0.6-0.6l-0.1-3.1q-0.1-0.2 0.1-0.4l1.3-1.3c0.2-0.2 0.6-0.2 0.8 0 0.3 0.2 0.3 0.6 0.1 0.8l-1.2 1.1 0.2 2.8c0 0.4-0.3 0.6-0.6 0.7q0 0 0 0z"/><path  d="m115 24.6c-0.3 0-0.5-0.2-0.5-0.5l-0.1-3.1q0-0.3 0.2-0.5l1.9-1.4c0.2-0.2 0.6-0.2 0.8 0 0.2 0.3 0.1 0.7-0.1 0.9l-1.6 1.3v2.7c0 0.4-0.2 0.6-0.5 0.6q-0.1 0-0.1 0z"/><path fill-rule="evenodd" d="m118 36.6q-0.5 0-1-0.1c-1.6-0.7-3-3.2-3.1-3.4-0.1-0.3-0.1-0.5 0.1-0.7 0.1-0.2 0.4-0.3 0.6-0.2l7 2.2c0.2 0 0.4 0.2 0.4 0.5 0 0.2-0.1 0.4-0.3 0.5-0.2 0.2-2.1 1.2-3.7 1.2zm-2.2-2.8c0.5 0.7 1.1 1.3 1.6 1.6 0.6 0.2 1.5 0 2.4-0.4z"/><path class="k" d="m112 54.1q-0.9 0-2-0.1c-6.6-0.5-9.5-5.2-9.7-5.4-0.1-0.2-0.1-0.6 0.2-0.8 0.3-0.1 0.7-0.1 0.8 0.2 0.1 0.1 2.8 4.3 8.8 4.9 5.9 0.5 7.8-1.6 7.8-1.6 0.2-0.3 0.6-0.3 0.8-0.1 0.3 0.2 0.3 0.6 0.1 0.8-0.1 0.1-1.7 2.1-6.8 2.1z"/><path fill-rule="evenodd" class="k" d="m79.3 102q-0.2 0-0.3-0.1c-0.2-0.1-0.3-0.4-0.3-0.6 0.3-1.5 1.6-9 4-9.7 0.4-0.1 1-0.1 1.7 0.6 2.2 2.4-3.5 8.4-4.7 9.6q-0.2 0.2-0.4 0.2zm3.8-9.3c-1 0.3-2.1 3.4-2.8 6.8 2.1-2.5 4.1-5.5 3.2-6.5-0.2-0.2-0.3-0.3-0.4-0.3z"/></svg>