<svg version="1.2" xmlns="http://www.w3.org/2000/svg" viewBox="0 0 240 149" width="240" height="149"><style>.a{fill:#e2dde8}.b{fill:#fc907e}.c{fill:#8758e7}.d{fill:#9691f2}.e{fill:#714dd6}.f{fill:#ada4f7}.g{fill:#fca032}.h{fill:#ffaf45}.i{fill:#734ddb}.j{fill:#fff}.k{fill:#f74d76}.l{fill:#50447e}.m{fill:#fc8165}.n{fill:#ea366e}.o{fill:#534579}.p{fill:#ffa4be}.q{fill:#dcd7e0}.r{fill:#bcb5c6}</style><path  d="m198.2 29.8c0 0 9.9 15.9-3.4 17.6-13.4 1.7 3.4-17.6 3.4-17.6z"/><path class="a" d="m219.3 73.5c1-0.7 21.5-3.7 20.7 25-0.8 28.7-32.9 45.2-68.2 39-35.2-6.2-1.8-47.4-1.8-47.4z"/><path class="b" d="m157.1 118l0.7 6.7h12.9v-7.6z"/><path class="b" d="m180.3 121.1l1.3 6.8 14.2-3.4-2.5-7.4z"/><path class="c" d="m172.2 79.9c0 0 1.9-25.1 11-28.3 13.1-4.5 22.7 0.2 22.7 0.2l-0.7 32.2z"/><path class="d" d="m177.7 78.6c0 0-18.7-4.6-23.9 3.3-5.1 7.9 2.1 38.2 2.1 38.2h17.2z"/><path class="e" d="m155.9 120.3q-0.1 0-0.1 0c-0.2-0.1-0.2-0.2-0.1-0.3 0-0.2 1.3-2.8 2.6-3.2q0.5-0.2 0.9 0.1c1 0.5 1.7 1.5 2 2.1 0.6-1 2.3-3.3 3.6-3.3 1.4 0 2.4 2.3 2.8 3.3 0.6-0.8 2.1-2.6 3.2-2.2 1.3 0.6 1.8 2.5 1.8 2.6 0 0.1-0.1 0.3-0.2 0.3-0.2 0-0.3-0.1-0.3-0.2 0 0-0.4-1.8-1.5-2.2-0.7-0.3-2.2 1.3-2.9 2.4q-0.1 0.1-0.3 0.1-0.1 0-0.2-0.2c-0.3-0.9-1.3-3.4-2.4-3.4-1.1 0-2.8 2.5-3.4 3.5q-0.1 0.1-0.3 0.1-0.1 0-0.2-0.2c0 0-0.6-1.7-1.9-2.3q-0.2-0.1-0.5 0c-1 0.3-2.1 2.2-2.4 2.9q-0.1 0.1-0.2 0.1z"/><path class="f" d="m217.5 85.5c0 0 4.7 14.5-3.1 17.4-7.8 3-24 3-24 3l7.3 13-23.5 6.9c0 0-19.6-35.2-7.7-44.6 11.9-9.4 36.9 4.2 36.9 4.2z"/><path class="g" d="m156.8 121.1c0 0-4.5 5.3-5.6 5.8-1 0.5-11.9 4.1-14 6.2-2.1 2-2.2 6-1.6 6.4 0.6 0.4 36.3 0 36.3 0l0.4-17.2z"/><path class="h" d="m179.4 125c0 0-1.8 7.1-3.3 7.8-1.4 0.8-7.8 4.8-11.2 8.4-2.9 3 0 4.7 0 4.7h19.9l17.2-12.6-6.2-13.1z"/><path class="i" d="m153.1 124.7c0 0 5 5.7 3.9 6.2-1.2 0.5-10.8-1-10.5-2 0.2-1.1 5.5-4.3 6.6-4.2z"/><path class="c" d="m177.6 129.3c0 0 6.4 4.1 5.4 4.8-1 0.8-10.6 2.1-10.7 1 0-1 4.1-5.6 5.3-5.8z"/><path class="b" d="m194.7 44.3l0.8 5.1c0 0-0.9 1.7-4.2 2.5-2.5 0.7-3.4 0.3-3.4 0.3l-0.1-2.6v-2.6l5.9-2.3z"/><path  d="m193.7 44.7q0 0.3-0.1 0.6c-0.8 3.1-4.2 4.3-5.6 4.7l-0.2-2.9z"/><path class="b" d="m184.3 34.2c0 0-1.8 7.7 0.1 11.6 1.9 3.8 5.4 2.5 7.4 1.3 2.1-1.2 2.9-2.8 2.9-2.8 0 0 2.1 0.4 3.2-1.8 1-2.2-0.3-4.2-1.5-4.5-1.3-0.3-2.5 0.9-2.5 0.9l0.7-2.3c0 0-6.6-9.8-10.3-2.4z"/><path  d="m186.3 43.3q-0.2 0-0.2-0.2c-0.8-1.4 0-3.2 0-3.3 0.1-0.1 0.2-0.1 0.3-0.1 0.2 0.1 0.2 0.2 0.2 0.3 0 0.1-0.8 1.7-0.1 2.9 0.1 0.1 0 0.3-0.1 0.3q-0.1 0.1-0.1 0.1z"/><path  d="m194.8 42.2q-0.1 0-0.2-0.1c-0.1 0-0.1-0.2 0-0.3l1.5-2.4c0.1-0.2 0.2-0.2 0.3-0.1 0.2 0 0.2 0.2 0.1 0.3l-1.5 2.5q-0.1 0.1-0.2 0.1z"/><path  d="m195.3 41.3c-0.1 0-0.2-0.1-0.2-0.3 0-0.1 0.1-0.2 0.2-0.2l1.4-0.1c0.2 0 0.3 0.1 0.3 0.3 0 0.1-0.1 0.2-0.3 0.2l-1.4 0.1q0 0 0 0z"/><path class="j" d="m184.6 75.8q-0.1 0-0.2-0.1c0 0-1.7-2.2-3-5.5-2-5.1-0.1-12.3 0-12.6 0-0.2 0.2-0.2 0.3-0.2 0.1 0 0.2 0.2 0.2 0.3 0 0.1-2 7.4 0 12.3 1.3 3.2 2.9 5.4 2.9 5.4 0.1 0.1 0.1 0.3-0.1 0.4q0 0-0.1 0z"/><path fill-rule="evenodd" d="m188.7 45c-0.6 0-1.1-0.3-1.2-0.3q-0.1-0.1-0.1-0.3 0-0.1 0.1-0.2l2.7-1.4q0.1-0.1 0.2 0 0.1 0.1 0.1 0.2c0 0-0.1 1.1-0.9 1.8-0.3 0.2-0.6 0.2-0.9 0.2zm-0.5-0.6c0.3 0.2 0.7 0.2 1.1 0 0.3-0.3 0.5-0.6 0.6-0.9z"/><path  d="m189.8 37.2q-0.2 0-0.2-0.1c-0.5-0.6-1.3-0.2-1.3-0.2-0.2 0-0.3 0-0.4-0.2 0-0.1 0-0.2 0.2-0.3 0 0 1.2-0.5 1.8 0.4 0.1 0.1 0.1 0.2 0 0.3q-0.1 0.1-0.1 0.1z"/><path  d="m184.1 37.4q-0.1 0-0.2 0c-0.1-0.1-0.1-0.3 0-0.4 0 0 0.5-0.6 1.1-0.7q0.5 0 0.9 0.4c0.1 0.1 0.1 0.2 0 0.3-0.1 0.1-0.2 0.1-0.3 0q-0.3-0.2-0.5-0.2c-0.4 0-0.8 0.5-0.8 0.5q-0.1 0.1-0.2 0.1z"/><path  d="m185 40.4c-0.1 0-0.3-0.1-0.3-0.2v-1.3l-0.6-0.4c-0.1-0.1-0.1-0.3 0-0.4 0.1-0.1 0.3-0.1 0.4 0l0.6 0.5q0.1 0.1 0.1 0.2v1.4c0 0.1-0.1 0.2-0.2 0.2q0 0 0 0z"/><path  d="m189 40c-0.1 0-0.2-0.1-0.2-0.3l-0.1-1.2-0.8-0.5c-0.1-0.1-0.2-0.3-0.1-0.4 0.1-0.1 0.3-0.1 0.4 0l0.9 0.5q0.1 0.1 0.1 0.2l0.1 1.4c0 0.1-0.1 0.3-0.3 0.3q0 0 0 0z"/><path  d="m193.6 38.8c0 0-3.6-0.5-5.2-2.9-1.5-2.4-1.4-3.5-1.4-3.5 0 0-1.8 1-2.4 2.3-0.7 1.4-0.8 2.1-0.8 2.1 0 0-0.6-2.9-0.3-3.8 0.4-0.9 2-5.8 9-5.2 10.5 0.9 6.2 9.4 1.1 11z"/><path class="b" d="m194.9 71.5c0 0-0.4-0.2-1.7-0.6-1.3-0.5-5.9-0.2-5.9-0.2 0 0-4.1 0.6-7.4 2-3.4 1.3-2.9 2.8-2.9 2.8 0 0-2.2 1.1-1.4 2.1 0.8 0.9 4.3 0.4 4.3 0.4 0 0-4.4 1.2-2.8 2.3 1.7 1.1 7.3-0.7 7.3-0.7 0 0 8.3 3.8 11.3 1.2 3-2.7-0.8-9.3-0.8-9.3z"/><path class="c" d="m193.1 70.3l-3.3 13.5c0 0 22 17.3 31.1 3.7 9.2-13.5-7.9-33.8-15-35.7-7.2-1.9-3.6 19.9-3.6 19.9z"/><path fill-rule="evenodd" class="c" d="m190.4 106.2q-0.1 0-0.2 0c-0.5-0.4-5.4-3.3-5.3-5.3 0-0.4 0.1-0.8 0.7-1.2q0.8-0.4 1.6-0.1c2.1 0.9 3.4 6.1 3.4 6.3q0 0.1-0.1 0.2 0 0.1-0.1 0.1zm-3.9-6.2q-0.3 0-0.6 0.2-0.5 0.2-0.5 0.7c-0.1 1.3 2.9 3.4 4.6 4.5-0.4-1.4-1.5-4.7-3-5.3q-0.3-0.1-0.5-0.1z"/><path class="j" d="m189.8 84.1c-0.2 0-0.3-0.1-0.3-0.3 0-0.1 0.1-0.2 0.3-0.2 0 0 2-0.1 2.6-1.1 0.9-1.2-0.8-2.6-0.9-2.6q-0.1-0.1-0.1-0.3 0-0.1 0.1-0.2c0.1 0 2.3-0.8 3-2.5 0.5-1.1-1.1-3-1.8-3.6q-0.1-0.2 0-0.3 0.1-0.2 0.2-0.2c0.6 0.1 2.2 0.1 2.6-0.6q0.2-0.5-0.4-1.4 0-0.1 0-0.2 0.1-0.2 0.2-0.2c0.4 0 9.6-0.3 14.4 1.6 0.1 0 0.2 0.1 0.1 0.3 0 0.1-0.2 0.2-0.3 0.1-4.1-1.6-11.8-1.5-13.7-1.5q0.5 0.9 0.1 1.6c-0.4 0.7-1.6 0.8-2.4 0.8 0.7 0.9 2 2.6 1.5 3.7-0.6 1.5-2.2 2.4-2.9 2.7 0.7 0.7 1.6 2 0.8 3.1-0.8 1.1-3 1.3-3.1 1.3q0 0 0 0z"/><path fill-rule="evenodd" class="j" d="m202.5 71.1q-0.2 0-0.3-0.2c0-0.1 0-0.2 0.1-0.3 0.5-0.3 5.1-3.2 6.8-2.1 0.3 0.3 0.3 0.5 0.3 0.7-0.3 1-4.9 1.7-6.9 1.9q0 0 0 0zm5.5-2.3c-1.1 0-3.1 0.9-4.4 1.6 2.9-0.4 5.2-1 5.3-1.4q0 0-0.1 0-0.3-0.2-0.8-0.2z"/><path fill-rule="evenodd" class="j" d="m191.9 54.5c-0.8 0-1.4-0.8-1.7-1.3-0.5 0.4-1.5 1.3-2.4 1.3-0.3 0-0.5-0.2-0.6-0.3-0.3-0.6 0.3-1.8 0.5-2.1 0-0.1 0.1-0.1 0.2-0.1 0.1 0 5.2 0.1 7.4-2.7q0.1-0.1 0.2-0.1 0.1 0 0.2 0.2c0.1 0.4 0.7 2.6-0.1 3.1-0.6 0.4-1.3 0-1.7-0.4-0.2 0.8-0.6 2.1-1.6 2.4q-0.2 0-0.4 0zm-1.6-2q0.2 0.1 0.2 0.2c0 0 0.7 1.5 1.7 1.3 0.9-0.3 1.2-1.8 1.2-2.4q0.1-0.1 0.2-0.2 0.1 0 0.3 0.1c0.2 0.2 1 0.9 1.4 0.6 0.3-0.2 0.2-1.2 0-2.1-2.1 2.3-6.3 2.5-7.2 2.5-0.3 0.5-0.5 1.2-0.4 1.4 0 0 0 0.1 0.1 0.1 0.8 0 1.9-1 2.3-1.4q0.1-0.1 0.2-0.1z"/><path class="a" d="m177.1 80.1h-28l-8-18.2h26.9c0.7 0 1.3 0.4 1.6 1z"/><path class="k" d="m174.7 80.1h-28.1l-7.1-16.2c-0.4-0.9 0.2-2 1.2-2h26z"/><path class="l" d="m186.5 82.3h-39.6c-0.6 0-1.1-0.5-1.1-1.1 0-0.6 0.5-1.1 1.1-1.1h39.6c0.7 0 1.2 0.5 1.2 1.1 0 0.6-0.5 1.1-1.2 1.1z"/><path  d="m177 75.8q-0.2-0.1-0.2-0.2c-0.1-0.1-0.1-0.2 0.1-0.3 0 0 2.9-1.7 6.6-2.7 0.1-0.1 0.2 0 0.3 0.1 0 0.2-0.1 0.3-0.2 0.3-3.6 1.1-6.5 2.7-6.5 2.7q-0.1 0.1-0.1 0.1z"/><path  d="m179.4 78.1q-0.1 0-0.2-0.1c0-0.1 0-0.3 0.1-0.4 0.1 0 2.5-1.6 4.8-1.8 0.1 0 0.2 0.1 0.2 0.2 0 0.2-0.1 0.3-0.2 0.3-2.1 0.2-4.5 1.7-4.5 1.8q-0.1 0-0.2 0z"/><path class="j" d="m217 125q-0.1 0-0.2-0.2c-0.1-0.1 0-0.2 0.1-0.3 9.3-5.5 13-13.9 13-14 0.1-0.1 0.2-0.2 0.3-0.1 0.2 0.1 0.2 0.2 0.2 0.3-0.1 0.1-3.8 8.6-13.2 14.2q-0.1 0.1-0.2 0.1z"/><path  d="m195.5 31.5c0 0 3.7-10.1 8-6.1 4.4 4-4 10.5-4 10.5z"/><path class="a" d="m20.7 72.1c-1-0.8-21.2-3.7-20.4 24.6 0.7 28.3 32.4 44.5 67.1 38.4 34.7-6.1 1.8-46.7 1.8-46.7z"/><path class="j" d="m22.9 122.7q-0.1 0-0.1 0c-9.3-5.5-13-13.9-13-14-0.1-0.1 0-0.3 0.1-0.3 0.1-0.1 0.3 0 0.3 0.1 0.1 0.1 3.7 8.3 12.8 13.8 0.1 0 0.2 0.2 0.1 0.3q-0.1 0.1-0.2 0.1z"/><path class="m" d="m73.4 55.4c0 0 3.2 0.2 2.2 4.7-1 4.5-3.9-1.1-3.9-1.1z"/><path class="c" d="m104.7 141.6c-0.7 0.3-36.3-1.5-37.1-2.2-0.3-0.3-0.3-2-0.1-4.4 0.4-4.4 2.9-11.9 4.3-16.5 0 0 12.5 0.8 13.6 1.5 1.1 0.7 13.1 10.9 13.1 10.9 0 0 4.6 1.7 6.3 4.4 0.5 0.8 0.7 1.7 0.8 2.5 0.2 1.9-0.5 3.6-0.9 3.8z"/><path class="l" d="m104.7 141.6c-0.7 0.3-36.3-1.5-37.1-2.2-0.3-0.3-0.3-2-0.1-4.4l38.1 2.8c0.2 1.9-0.5 3.6-0.9 3.8z"/><path class="l" d="m94.4 127.7c0 0-10.4-0.8-10.4-0.8q-0.2 0-0.2-0.2-0.1-0.2 0.1-0.3l5.1-3.3c0.1-0.1 0.3-0.1 0.3 0.1 0.1 0.1 0.1 0.2 0 0.3l-4.5 2.9 9.6 0.8c0.2 0 0.3 0.2 0.3 0.3 0 0.1-0.1 0.2-0.3 0.2z"/><path class="n" d="m61 85.5c0 0 19.8-14 36.9-9.7 17.1 4.3-7.9 45.8-7.9 45.8l-24.8 0.1 2.4-11.9-29.8-0.1 13.1-18.6z"/><path class="j" d="m83.9 88q-0.1 0-0.1-0.1c-0.1-0.1-0.2-0.2-0.1-0.3 0-0.1 2.3-3.6 5.2-6.1 0.2-0.1 0.3-0.1 0.4 0 0.1 0.1 0.1 0.3 0 0.4-3 2.5-5.1 5.9-5.2 5.9q-0.1 0.2-0.2 0.2z"/><path class="h" d="m58.2 65.7l17 5.1c0 0 0.2 11.5-10.6 14.7-10.8 3.1-12.1-10-12.1-10z"/><path class="m" d="m67.4 67.9c0 0-0.6 6.4 4.6 5.8 5.1-0.6 4.8-8 4.8-8z"/><path class="h" d="m27.2 100.8c0 0-9.9-35.8-1.5-45.7 8.3-9.8 27.7-1.6 27.7-1.6l9.2 32.8z"/><path class="m" d="m41 75.1c0 0 5-7.9 7.5-8.8 2.4-0.9 8.3 0.3 8.3 1 0 0.7-5.5 1.5-5.5 1.5 0 0 3.1 5.4 3.1 6.6 0.1 1.2-2.7 4.7-3.3 5-0.6 0.4-2.1-1.6-2.1-1.6 0 0-1.7 2.1-4 2.7-2.4 0.6-5.1-3-5.1-3z"/><path  d="m48.5 71c-0.1 0-0.2-0.1-0.3-0.2 0-0.2 0.1-0.3 0.2-0.3l3.3-0.6c0.2 0 0.3 0.1 0.3 0.2 0 0.2-0.1 0.3-0.2 0.3l-3.3 0.6q0 0 0 0z"/><path class="m" d="m32.9 45.1l0.1 6.4c0 0 1.2 1.8 5 2 2.7 0.1 3.5-0.8 3.5-0.8l-0.3-2.9-0.4-3.2-6.8-1.3z"/><path  d="m34.1 45.8q0 0.3 0.2 0.6c1.5 3 5.4 3.6 7 3.7l-0.5-3z"/><path class="m" d="m41.6 33.1c0 0 3.4 7.6 2.3 11.9-1.2 4.3-5.1 3.7-7.4 2.9-2.4-0.9-3.5-2.3-3.5-2.3 0 0-2.2 0.8-3.6-1.2-1.5-2-0.6-4.4 0.6-4.9 1.2-0.6 2.7 0.3 2.7 0.3l-1.1-2.2c0 0 4.7-11.3 10-4.5z"/><path  d="m41.4 42.8q-0.1 0-0.1 0c-0.1 0-0.2-0.2-0.2-0.3 0.4-1.4-0.6-2.9-0.6-2.9-0.1-0.1-0.1-0.3 0-0.4 0.2-0.1 0.3 0 0.4 0.1 0 0 1.2 1.7 0.7 3.3 0 0.1-0.1 0.2-0.2 0.2z"/><path  d="m32.4 43.4q-0.1 0-0.2-0.1l-2-2.2c-0.1-0.1-0.1-0.2 0-0.3 0.1-0.1 0.2-0.1 0.3 0l2.1 2.2c0.1 0.1 0.1 0.2 0 0.3q-0.1 0.1-0.2 0.1z"/><path  d="m30.2 42.8c-0.1 0-0.2-0.1-0.2-0.2 0-0.1 0.1-0.3 0.2-0.3l1.4-0.2c0.2 0 0.3 0.1 0.3 0.2 0 0.1-0.1 0.3-0.2 0.3l-1.4 0.2q-0.1 0-0.1 0z"/><path  d="m32.7 39.8c0 0 0.8 0.5 1.4-0.4 0.6-0.9-0.7-3.5-0.7-3.5 0 0 2.4 0.5 3.8-0.3 1.5-0.7 2.2-2.9 2.2-2.9 0 0 1.1 2.2 4.3 1.3 3.2-1 3.8-5.4 0.4-6.3-3.5-0.9-5.3 0.6-5.3 0.6 0 0-0.5-3.2-4.7-1.6-3.9 1.5-4.6 6.3-4.6 6.3 0 0-2.3 0.1-2.7 2.7-0.5 2.5 2.5 4.3 2.5 4.3 0 0 1.7-1 3.4-0.2z"/><path class="c" d="m72.3 77.2c-1.5 0-3.1-2.4-3.3-2.8-0.1-0.1 0-0.2 0.1-0.3 0.1-0.1 0.3 0 0.3 0.1 0.6 0.8 2.3 3 3.3 2.4 1.1-0.6 1.6-3.2 1.7-4.2 0-0.1 0.1-0.2 0.3-0.2 0.1 0 0.2 0.2 0.2 0.3 0 0.2-0.4 3.7-2 4.6q-0.3 0.1-0.6 0.1z"/><path  d="m37.9 40c-0.1 0-0.2-0.1-0.2-0.2l-0.2-1.5c-0.1-0.1 0-0.2 0.2-0.2 0.1 0 0.2 0 0.3 0.2l0.1 1.4c0.1 0.1 0 0.3-0.2 0.3q0 0 0 0z"/><path class="c" d="m61.6 85.2c-0.1 0-0.3-0.1-0.3-0.2-0.4-4.7-2.7-11.1-2.7-11.2 0-0.1 0-0.3 0.2-0.3 0.1 0 0.2 0 0.3 0.2 0 0 2.3 6.5 2.7 11.3 0 0.1-0.1 0.2-0.2 0.2q0 0 0 0z"/><path  d="m42.1 39.6c-0.1 0-0.2-0.1-0.2-0.2l-0.2-1.4c-0.1-0.1 0-0.3 0.2-0.3 0.1 0 0.2 0.1 0.2 0.2l0.3 1.4c0 0.2-0.1 0.3-0.2 0.3q-0.1 0-0.1 0z"/><path  d="m36.6 37.3q-0.1 0-0.1-0.1c-0.2 0-0.2-0.2-0.2-0.3 0.6-1 1.8-0.7 1.9-0.7 0.1 0 0.2 0.1 0.2 0.3 0 0.1-0.2 0.2-0.3 0.2 0-0.1-1-0.2-1.3 0.4q-0.1 0.2-0.2 0.2z"/><path class="c" d="m46.4 75.3l19.3 3.8c1 0.1 1.9-0.5 2.1-1.4l5.3-27.6c0.2-1-0.4-1.9-1.4-2l-19.3-3.8c-1-0.2-1.9 0.5-2.1 1.4l-5.3 27.6c-0.2 0.9 0.4 1.8 1.4 2z"/><path class="f" d="m47.7 75.6l19.4 3.7c0.9 0.2 1.8-0.4 2-1.3l5.3-27.7c0.2-0.9-0.4-1.8-1.3-2l-19.4-3.7c-0.9-0.2-1.8 0.4-2 1.4l-5.3 27.6c-0.2 0.9 0.4 1.8 1.3 2z"/><path class="j" d="m66 51.6q-0.4 0-0.9-0.1l-4.9-0.9c-0.9-0.2-1.7-0.6-2.3-1.2-0.6-0.6-0.8-1.3-0.7-2l0.4-2c0-0.1 0.2-0.2 0.3-0.2 0.1 0 0.2 0.1 0.2 0.3l-0.4 2c-0.1 0.5 0.1 1.1 0.6 1.6 0.5 0.5 1.2 0.8 2 1l4.9 0.9c1.6 0.4 3.2-0.3 3.4-1.4l0.4-2c0-0.1 0.1-0.2 0.3-0.2 0.1 0 0.2 0.2 0.2 0.3l-0.4 2c-0.3 1.2-1.5 1.9-3.1 1.9z"/><path  d="m40.7 36.4q-0.1 0-0.2-0.1c-0.1 0-0.1-0.2 0-0.3q0.3-0.5 0.8-0.5c0.7-0.1 1.3 0.4 1.3 0.4 0.1 0.1 0.1 0.3 0 0.4-0.1 0.1-0.2 0.1-0.3 0-0.2-0.1-0.6-0.4-0.9-0.3q-0.3 0-0.5 0.3-0.1 0.1-0.2 0.1z"/><path class="m" d="m75.3 63.8c0 0 4.5-0.5 3.1-2.6-1.4-2.1-9.6-3.1-10.4-0.6-0.9 2.4 7.3 3.2 7.3 3.2z"/><path class="m" d="m74.8 67.5c0 0 4.5-0.5 3.1-2.6-1.4-2.1-9.5-3.1-10.4-0.6-0.9 2.4 7.3 3.2 7.3 3.2z"/><path class="m" d="m72.2 70.6c0.9 0.4 2 0.5 3 0.2 0.9-0.2 1.7-0.6 1.2-1.6-0.9-2-7.9-4.1-9-2.1-0.8 1.5 2.8 2.9 4.8 3.5z"/><path  d="m75.8 63.3c0 0-5.3-0.4-5.3-0.4-0.1 0-0.2-0.1-0.2-0.3 0-0.1 0.1-0.2 0.3-0.2l5.2 0.4c0.2 0 0.3 0.1 0.3 0.2-0.1 0.2-0.2 0.3-0.3 0.3z"/><path  d="m75 67.4c-0.1 0-5.3-0.4-5.3-0.4-0.1 0-0.2-0.1-0.2-0.3 0-0.1 0.1-0.2 0.2-0.2l5.3 0.4c0.1 0 0.2 0.1 0.2 0.3 0 0.1-0.1 0.2-0.2 0.2z"/><path class="o" d="m35 101.5c-0.1 0-0.2-0.1-0.2-0.2l-0.9-3.4c0-0.1 0.1-0.3 0.2-0.3 0.1 0 0.3 0.1 0.3 0.2l0.9 3.3c0.1 0.2 0 0.3-0.2 0.4q0 0-0.1 0z"/><path class="o" d="m61.1 93.1c-0.1 0-0.3-0.1-0.3-0.2l-0.1-3.6c0-0.1 0.2-0.3 0.3-0.3 0.2 0 0.3 0.2 0.3 0.3l0.1 3.5c0 0.2-0.1 0.3-0.3 0.3q0 0 0 0z"/><path class="o" d="m58.2 95.3c-0.2 0-0.3-0.1-0.3-0.2v-3.8c0-0.1 0.1-0.3 0.3-0.3 0.1 0 0.2 0.2 0.2 0.3l0.1 3.8c0 0.1-0.2 0.2-0.3 0.2q0 0 0 0z"/><path class="p" d="m88.4 116.2c0 0-22-0.4-22-0.4-0.1 0-0.2-0.1-0.2-0.3 0-0.1 0.1-0.2 0.2-0.2 0 0 22 0.4 22 0.4 0.1 0.1 0.2 0.2 0.2 0.3 0 0.1-0.1 0.2-0.2 0.2z"/><path  d="m39.5 45c-0.9 0-1.6-0.7-1.8-1.1-0.1-0.2 0-0.3 0.1-0.4 0.1-0.1 0.3 0 0.3 0.1 0 0 0.7 1.1 1.8 0.8 0.2 0 0.3 0.1 0.3 0.2 0.1 0.1 0 0.3-0.1 0.3q-0.3 0.1-0.6 0.1z"/><path class="c" d="m137 128c-0.3 0.6-30.2 20.2-31.2 20.1-0.4 0-1.4-1.4-2.7-3.5-2.2-3.8-4.7-11.3-6.3-15.8 0 0 10.5-6.7 11.9-6.8 1.3-0.1 17 0.9 17 0.9 0 0 4.7-1.3 7.7-0.1 0.8 0.4 1.5 0.9 2 1.5 1.3 1.4 1.8 3.2 1.6 3.7z"/><path class="l" d="m137 128c-0.3 0.6-30.2 20.2-31.2 20.1-0.4 0-1.4-1.4-2.7-3.5l32.3-20.3c1.3 1.4 1.8 3.2 1.6 3.7z"/><path class="l" d="m112.5 128.4q-0.1 0-0.2 0-0.1-0.1-0.1-0.3l2.2-5.7c0-0.1 0.2-0.2 0.3-0.2 0.1 0.1 0.2 0.2 0.1 0.4l-1.9 5 8.3-5.1c0.1-0.1 0.3 0 0.4 0.1 0 0.1 0 0.2-0.1 0.3l-8.9 5.5q-0.1 0-0.1 0z"/><path class="k" d="m27.2 100.8c0 0 42.7-21.8 52.1-18.7 12.4 4.1 34.8 37.6 34.8 37.6l-19.7 19c0 0-20.3-27.4-23.5-27.1-3.8 0.5-25 9.4-32.5 6.9-7.5-2.4-11.2-17.7-11.2-17.7z"/><path fill-rule="evenodd" class="j" d="m71.6 111.9q-0.1 0-0.1 0-0.2-0.1-0.2-0.3c0-0.1-0.3-4.4 1.4-6q0.7-0.7 1.6-0.6 0.9 0.1 1.1 0.7c0.7 1.6-3.2 5.6-3.7 6.1q0 0.1-0.1 0.1zm2.5-6.4q-0.6 0-1.1 0.5c-1.1 1.1-1.2 3.8-1.2 5 1.5-1.7 3.5-4.2 3.2-5.2-0.1 0-0.1-0.3-0.7-0.3q-0.1 0-0.2 0z"/><path class="h" d="m29.9 51.9c0 0-29.4 12.7-24.3 34.8 4.9 20.9 38.5 2.6 38.5 2.6l-1.7-16.4-15.7 1.6z"/><path class="c" d="m43.2 87c-0.7 0-1.5-0.2-1.9-0.9-0.6-1.2 0.4-4.3 0.8-5.5-0.9 0.1-3 0.3-4.1-0.3-1.4-0.8 0.8-5.8 1.6-7.5-1.9-0.1-10.4-0.4-18.1 1.2-0.1 0-0.3 0-0.3-0.2 0-0.1 0.1-0.3 0.2-0.3 8.7-1.8 18.5-1.2 18.6-1.2q0.1 0 0.2 0.2 0.1 0.1 0 0.2c-1.5 3.1-2.6 6.7-1.9 7.1 1.2 0.8 4.1 0.3 4.1 0.3q0.2 0 0.3 0.1 0.1 0.1 0 0.2c-0.4 1.2-1.4 4.5-0.9 5.4 0.6 1.1 2.8 0.5 2.8 0.5 0.1-0.1 0.3 0 0.3 0.1 0.1 0.2 0 0.3-0.2 0.3 0 0.1-0.7 0.3-1.5 0.3z"/><path fill-rule="evenodd" class="c" d="m29.4 72.7c-1.3 0-5.9-0.1-6.5-1.3-0.1-0.2-0.2-0.5 0.1-0.9q0.4-0.5 1.1-0.6c2.1-0.3 5.5 2.3 5.6 2.4q0.2 0.1 0.1 0.3c0 0.1-0.2 0.1-0.4 0.1zm-4.9-2.4q-0.2 0-0.3 0.1-0.5 0-0.8 0.4c-0.1 0.2-0.1 0.3-0.1 0.4 0.4 0.7 3.3 1 5.5 1-1-0.7-3-1.9-4.3-1.9z"/><path class="c" d="m28.6 95.3q-0.2 0-0.2-0.2c-0.1-0.1 0-0.2 0.1-0.3 0.1 0 10.4-4 15.5-7.3 0.1-0.1 0.2 0 0.3 0.1 0.1 0.1 0.1 0.2-0.1 0.3-5.1 3.4-15.4 7.3-15.5 7.4q-0.1 0-0.1 0z"/><path fill-rule="evenodd" class="c" d="m34.9 57.3q-0.2 0-0.4 0c-1.5-0.5-1.7-5.6-1.7-6.1q0-0.2 0.1-0.3 0.2 0 0.3 0.1c0 0 1.7 1.8 4.8 2.2q0.9 0.2 1.8 0.1 0-0.1 0.1-0.1 0.3 0 0.6-0.1c0.5-0.1 0.9-0.6 0.9-1.1l-0.2-1.5q0-0.2 0.2-0.2 0.1-0.1 0.2 0c0.5 0.5 3 2.8 2.9 3.8q0 0.3-0.3 0.4c-0.9 0.5-3.5-0.4-4.3-0.7-0.7 0.7-3.5 3.5-5 3.5zm-1.6-5.5c0.1 2 0.6 4.7 1.4 5 0.8 0.3 3-1.5 4.5-3q-0.6 0-1.3-0.1c-2.3-0.3-3.9-1.4-4.6-1.9zm7.5 1.8c1.2 0.4 2.7 0.7 3.2 0.4 0.1-0.4-1-1.7-2.2-2.9l0.1 0.8c0 0.7-0.4 1.4-1.1 1.7z"/><path class="q" d="m132.4 15.3c0 8.2-6.6 14.9-14.8 14.9-8.2 0-14.9-6.7-14.9-14.9 0-8.2 6.7-14.8 14.9-14.8 8.2 0 14.8 6.6 14.8 14.8z"/><path class="r" d="m129.2 15.3c0 6.4-5.2 11.7-11.6 11.7-6.5 0-11.7-5.3-11.7-11.7 0-6.4 5.2-11.6 11.7-11.6 6.4 0 11.6 5.2 11.6 11.6z"/><path class="j" d="m117.1 16.3q0 0-0.1 0-0.1-0.1-0.1-0.2l-1.4-5.8c-0.1-0.1 0-0.2 0.2-0.3 0.1 0 0.2 0.1 0.3 0.2l1.3 5.5 8-5.3c0.1-0.1 0.3 0 0.4 0.1 0 0.1 0 0.2-0.1 0.3l-8.4 5.5q0 0-0.1 0z"/><path class="c" d="m174.7 125.9c-0.2 0-0.3-0.1-0.3-0.2 0-0.4 0-3.6 1.4-4.2 1.2-0.6 2.8 1.2 3.5 2.1 0.2-1.3 0.9-4.3 2.4-4.8 1.5-0.6 3.6 1.5 4.5 2.3 0.2-1 0.8-3.4 1.9-3.7 1.1-0.3 2.4 1.5 3 2.3 0.4-1 1.2-3 2.3-2.9 1.1 0.2 3.5 1.4 3.6 1.4 0.1 0.1 0.1 0.3 0.1 0.4-0.1 0.1-0.2 0.1-0.4 0.1 0 0-2.3-1.2-3.4-1.4-0.6-0.1-1.5 1.8-1.9 3.1q0 0.1-0.2 0.1-0.1 0.1-0.2-0.1c-0.7-1.1-2-2.7-2.8-2.5-0.7 0.2-1.4 2.5-1.6 3.8q-0.1 0.2-0.2 0.2-0.2 0.1-0.3-0.1c-0.7-0.8-3-3.1-4.2-2.6-1.3 0.5-2 3.9-2.2 5.1q0 0.2-0.2 0.2-0.2 0-0.3-0.1c-0.8-1.2-2.3-2.8-3.2-2.5-0.9 0.4-1.1 2.9-1.1 3.8 0 0.1-0.1 0.2-0.2 0.2q0 0 0 0z"/><path class="j" d="m91.1 133.3q-0.1 0-0.1 0c-0.1-0.1-0.1-0.3 0-0.4l19.3-18.5c0.1-0.1 0.3-0.1 0.4 0 0.1 0.1 0.1 0.2 0 0.3l-19.4 18.6q-0.1 0-0.2 0z"/></svg>